<svg xmlns="http://www.w3.org/2000/svg" xmlns:xlink="http://www.w3.org/1999/xlink" width="851" zoomAndPan="magnify" viewBox="0 0 638.25 236.249991" height="315" preserveAspectRatio="xMidYMid meet" version="1.0"><defs><g/><clipPath id="7879db9798"><rect x="0" width="597" y="0" height="198"/></clipPath></defs><g transform="matrix(1, 0, 0, 1, 18, 19)"><g clip-path="url(#7879db9798)"><g fill="#02377d" fill-opacity="1"><g transform="translate(1.133671, 142.219656)"><g><path d="M 57.09375 -131.765625 C 64.101562 -131.765625 70.953125 -130.742188 77.640625 -128.703125 C 84.335938 -126.660156 89.304688 -124.644531 92.546875 -122.65625 L 97.25 -119.53125 L 85.328125 -96 C 84.390625 -96.625 83.082031 -97.429688 81.40625 -98.421875 C 79.738281 -99.421875 76.601562 -100.753906 72 -102.421875 C 67.394531 -104.097656 63.109375 -104.9375 59.140625 -104.9375 C 54.222656 -104.9375 50.429688 -103.890625 47.765625 -101.796875 C 45.097656 -99.710938 43.765625 -96.890625 43.765625 -93.328125 C 43.765625 -91.554688 44.390625 -89.910156 45.640625 -88.390625 C 46.898438 -86.867188 49.046875 -85.242188 52.078125 -83.515625 C 55.109375 -81.796875 57.773438 -80.410156 60.078125 -79.359375 C 62.378906 -78.316406 65.9375 -76.753906 70.75 -74.671875 C 79.113281 -71.109375 86.25 -66.269531 92.15625 -60.15625 C 98.0625 -54.039062 101.015625 -47.113281 101.015625 -39.375 C 101.015625 -31.945312 99.679688 -25.460938 97.015625 -19.921875 C 94.347656 -14.378906 90.6875 -10.039062 86.03125 -6.90625 C 81.382812 -3.769531 76.234375 -1.441406 70.578125 0.078125 C 64.929688 1.597656 58.816406 2.359375 52.234375 2.359375 C 46.585938 2.359375 41.046875 1.78125 35.609375 0.625 C 30.171875 -0.519531 25.617188 -1.957031 21.953125 -3.6875 C 18.296875 -5.414062 15.003906 -7.113281 12.078125 -8.78125 C 9.148438 -10.457031 7.003906 -11.867188 5.640625 -13.015625 L 3.609375 -14.75 L 18.359375 -39.53125 C 19.609375 -38.476562 21.332031 -37.140625 23.53125 -35.515625 C 25.726562 -33.898438 29.625 -31.734375 35.21875 -29.015625 C 40.8125 -26.296875 45.75 -24.9375 50.03125 -24.9375 C 62.476562 -24.9375 68.703125 -29.171875 68.703125 -37.640625 C 68.703125 -39.421875 68.253906 -41.066406 67.359375 -42.578125 C 66.472656 -44.097656 64.90625 -45.613281 62.65625 -47.125 C 60.414062 -48.644531 58.429688 -49.847656 56.703125 -50.734375 C 54.972656 -51.628906 52.148438 -52.988281 48.234375 -54.8125 C 44.316406 -56.644531 41.414062 -58.035156 39.53125 -58.984375 C 31.6875 -62.847656 25.617188 -67.679688 21.328125 -73.484375 C 17.046875 -79.285156 14.90625 -85.535156 14.90625 -92.234375 C 14.90625 -103.835938 19.191406 -113.328125 27.765625 -120.703125 C 36.335938 -128.078125 46.113281 -131.765625 57.09375 -131.765625 Z M 57.09375 -131.765625 "/></g></g></g><g fill="#02377d" fill-opacity="1"><g transform="translate(101.675665, 142.219656)"><g><path d="M 14.90625 -9.953125 C 7.375 -18.171875 3.609375 -28.238281 3.609375 -40.15625 C 3.609375 -52.070312 7.375 -62.160156 14.90625 -70.421875 C 22.4375 -78.691406 32.003906 -82.828125 43.609375 -82.828125 C 54.273438 -82.828125 63.054688 -79.476562 69.953125 -72.78125 L 69.953125 -80.46875 L 97.71875 -80.46875 L 97.71875 0 L 70.265625 0 L 70.265625 -9.09375 L 69.953125 -9.09375 C 63.054688 -1.457031 54.273438 2.359375 43.609375 2.359375 C 32.003906 2.359375 22.4375 -1.742188 14.90625 -9.953125 Z M 38.5 -53.796875 C 34.894531 -50.242188 33.09375 -45.695312 33.09375 -40.15625 C 33.09375 -34.613281 34.816406 -30.085938 38.265625 -26.578125 C 41.722656 -23.078125 46.273438 -21.328125 51.921875 -21.328125 C 57.359375 -21.328125 61.828125 -23.101562 65.328125 -26.65625 C 68.835938 -30.21875 70.59375 -34.71875 70.59375 -40.15625 C 70.59375 -45.695312 68.785156 -50.242188 65.171875 -53.796875 C 61.566406 -57.359375 57.148438 -59.140625 51.921875 -59.140625 C 46.585938 -59.140625 42.113281 -57.359375 38.5 -53.796875 Z M 38.5 -53.796875 "/></g></g></g><g fill="#02377d" fill-opacity="1"><g transform="translate(203.94303, 142.219656)"><g><path d="M 9.40625 0 L 9.40625 -134.90625 L 37.171875 -134.90625 L 37.171875 0 Z M 9.40625 0 "/></g></g></g><g fill="#02377d" fill-opacity="1"><g transform="translate(245.665278, 142.219656)"><g><path d="M 14.90625 -9.953125 C 7.375 -18.171875 3.609375 -28.238281 3.609375 -40.15625 C 3.609375 -52.070312 7.375 -62.160156 14.90625 -70.421875 C 22.4375 -78.691406 32.003906 -82.828125 43.609375 -82.828125 C 54.273438 -82.828125 63.054688 -79.476562 69.953125 -72.78125 L 69.953125 -134.90625 L 97.71875 -134.90625 L 97.71875 0 L 70.265625 0 L 70.265625 -9.09375 L 69.953125 -9.09375 C 63.054688 -1.457031 54.273438 2.359375 43.609375 2.359375 C 32.003906 2.359375 22.4375 -1.742188 14.90625 -9.953125 Z M 38.5 -53.796875 C 34.894531 -50.242188 33.09375 -45.695312 33.09375 -40.15625 C 33.09375 -34.613281 34.816406 -30.085938 38.265625 -26.578125 C 41.722656 -23.078125 46.273438 -21.328125 51.921875 -21.328125 C 57.359375 -21.328125 61.828125 -23.101562 65.328125 -26.65625 C 68.835938 -30.21875 70.59375 -34.71875 70.59375 -40.15625 C 70.59375 -45.695312 68.785156 -50.242188 65.171875 -53.796875 C 61.566406 -57.359375 57.148438 -59.140625 51.921875 -59.140625 C 46.585938 -59.140625 42.113281 -57.359375 38.5 -53.796875 Z M 38.5 -53.796875 "/></g></g></g><g fill="#02377d" fill-opacity="1"><g transform="translate(347.932642, 142.219656)"><g><path d="M 17.015625 -9.5625 C 8.078125 -17.507812 3.609375 -27.707031 3.609375 -40.15625 C 3.609375 -52.601562 8.257812 -62.828125 17.5625 -70.828125 C 26.875 -78.828125 38.378906 -82.828125 52.078125 -82.828125 C 65.566406 -82.828125 76.9375 -78.800781 86.1875 -70.75 C 95.445312 -62.695312 100.078125 -52.5 100.078125 -40.15625 C 100.078125 -27.8125 95.550781 -17.640625 86.5 -9.640625 C 77.457031 -1.640625 65.984375 2.359375 52.078125 2.359375 C 37.648438 2.359375 25.960938 -1.613281 17.015625 -9.5625 Z M 38.5 -53.796875 C 34.894531 -50.242188 33.09375 -45.695312 33.09375 -40.15625 C 33.09375 -34.613281 34.816406 -30.085938 38.265625 -26.578125 C 41.722656 -23.078125 46.273438 -21.328125 51.921875 -21.328125 C 57.359375 -21.328125 61.828125 -23.101562 65.328125 -26.65625 C 68.835938 -30.21875 70.59375 -34.71875 70.59375 -40.15625 C 70.59375 -45.695312 68.785156 -50.242188 65.171875 -53.796875 C 61.566406 -57.359375 57.148438 -59.140625 51.921875 -59.140625 C 46.585938 -59.140625 42.113281 -57.359375 38.5 -53.796875 Z M 38.5 -53.796875 "/></g></g></g><g fill="#02377d" fill-opacity="1"><g transform="translate(446.74924, 142.219656)"><g><path d="M 17.015625 -9.5625 C 8.078125 -17.507812 3.609375 -27.707031 3.609375 -40.15625 C 3.609375 -52.601562 8.257812 -62.828125 17.5625 -70.828125 C 26.875 -78.828125 38.378906 -82.828125 52.078125 -82.828125 C 65.566406 -82.828125 76.9375 -78.800781 86.1875 -70.75 C 95.445312 -62.695312 100.078125 -52.5 100.078125 -40.15625 C 100.078125 -27.8125 95.550781 -17.640625 86.5 -9.640625 C 77.457031 -1.640625 65.984375 2.359375 52.078125 2.359375 C 37.648438 2.359375 25.960938 -1.613281 17.015625 -9.5625 Z M 38.5 -53.796875 C 34.894531 -50.242188 33.09375 -45.695312 33.09375 -40.15625 C 33.09375 -34.613281 34.816406 -30.085938 38.265625 -26.578125 C 41.722656 -23.078125 46.273438 -21.328125 51.921875 -21.328125 C 57.359375 -21.328125 61.828125 -23.101562 65.328125 -26.65625 C 68.835938 -30.21875 70.59375 -34.71875 70.59375 -40.15625 C 70.59375 -45.695312 68.785156 -50.242188 65.171875 -53.796875 C 61.566406 -57.359375 57.148438 -59.140625 51.921875 -59.140625 C 46.585938 -59.140625 42.113281 -57.359375 38.5 -53.796875 Z M 38.5 -53.796875 "/></g></g></g><g fill="#02377d" fill-opacity="1"><g transform="translate(545.565839, 142.219656)"><g><path d="M 27.296875 -33.5625 C 32.316406 -33.5625 36.578125 -31.8125 40.078125 -28.3125 C 43.578125 -24.8125 45.328125 -20.550781 45.328125 -15.53125 C 45.328125 -10.613281 43.578125 -6.398438 40.078125 -2.890625 C 36.578125 0.609375 32.316406 2.359375 27.296875 2.359375 C 22.378906 2.359375 18.164062 0.609375 14.65625 -2.890625 C 11.15625 -6.398438 9.40625 -10.613281 9.40625 -15.53125 C 9.40625 -20.550781 11.15625 -24.8125 14.65625 -28.3125 C 18.164062 -31.8125 22.378906 -33.5625 27.296875 -33.5625 Z M 27.296875 -33.5625 "/></g></g></g></g></g></svg>