<?xml version="1.0" encoding="UTF-8"?><svg id="a" xmlns="http://www.w3.org/2000/svg" xmlns:xlink="http://www.w3.org/1999/xlink" viewBox="0 0 1000 300"><defs><style>.c{fill:url(#b);}</style><linearGradient id="b" x1="70.84" y1="255.91" x2="926.65" y2="105.01" gradientTransform="matrix(1, 0, 0, 1, 0, 0)" gradientUnits="userSpaceOnUse"><stop offset="0" stop-color="#de8027"/><stop offset=".48" stop-color="#e99921"/><stop offset="1" stop-color="#f4b11c"/></linearGradient></defs><path class="c" d="M589.36,120.17c-10.54-11.12-27.5-16.98-44.77-16.98-41.83,0-77.22,32.77-77.22,80.46s35.39,80.44,77.22,80.44c17.27,0,34.23-5.86,44.77-16.96l.29,14.03h28.16c7.07,0,12.8-5.73,12.8-12.8V106.12h-26.9c-7.81,0-14.18,6.24-14.34,14.05Zm-38.62,101.8c-21.35,0-37.15-14.93-37.15-38.32s15.79-38.33,37.15-38.33,36.57,14.91,36.57,38.33-15.51,38.32-36.57,38.32ZM167.28,82.41h30.45v115.26c0,41.54-25.75,67.29-67.87,67.29s-67.86-25.75-67.86-67.29V121.89h46.21v74.05c0,16.67,7.91,26.03,21.65,26.03s21.65-9.36,21.65-26.03V98.17c0-8.71,7.06-15.76,15.77-15.76Zm495.6-34.94v22.51c0,6.87,5.57,12.43,12.43,12.43h21.35c6.87,0,12.43-5.57,12.43-12.43V35.04h-33.79c-6.87,0-12.43,5.57-12.43,12.43Zm0,71.08v142.6h33.46c7.05,0,12.76-5.71,12.76-12.76V106.11h-33.79c-6.87,0-12.43,5.57-12.43,12.43Zm144.55-16.23c-42.12,0-67.86,25.72-67.86,67.26v91.56h33.45c7.05,0,12.76-5.71,12.76-12.76v-77.04c0-16.67,7.91-26.03,21.65-26.03s21.65,9.36,21.65,26.03v89.8h46.22v-91.56c0-41.54-25.75-67.26-67.87-67.26Zm120.78,115.23c-11.99,0-21.8,9.81-21.8,21.8s9.81,21.8,21.8,21.8,21.8-9.81,21.8-21.8-9.81-21.8-21.8-21.8ZM380.95,102.33c-20.77,0-36.87,7.6-45.94,19.59-9.36-11.99-25.44-19.59-46.2-19.59-38.32,0-62.3,24.85-62.3,68.15v90.67h46.2v-92.43c0-14.91,7.91-23.4,19.6-23.4s19.6,8.49,19.6,23.4v92.43h33.39c7.09,0,12.84-5.75,12.84-12.84v-79.6c0-14.91,7.6-23.4,19.58-23.4s19.6,8.49,19.6,23.4v92.43h46.23v-90.67c0-43.3-23.98-68.15-62.59-68.15Z"/></svg>